<svg width="152" height="32" viewBox="0 0 152 32" fill="none" xmlns="http://www.w3.org/2000/svg">
<path fill-rule="evenodd" clip-rule="evenodd" d="M14.0078 17.6918V31.2195L28.84 20.4823L16.3904 15.9675L14.0078 17.6918Z" fill="#003C6E"/>
<path fill-rule="evenodd" clip-rule="evenodd" d="M0 0V27.197L13.0401 31.92V4.72909L0 0Z" fill="#003C6E"/>
<path fill-rule="evenodd" clip-rule="evenodd" d="M151.678 16.3906C150.855 15.9272 150.067 15.7492 148.957 15.7492C146.81 15.7492 145.379 16.9616 145.379 19.7074V27.1975H140.225V11.3624H145.379V14.2506C145.987 12.468 147.633 10.9346 149.781 10.9346C150.748 10.9346 151.57 11.2193 152 11.5767L151.678 16.3906Z" fill="#003C6E"/>
<path fill-rule="evenodd" clip-rule="evenodd" d="M133.247 17.675C133.139 16.1052 132.137 14.6793 130.169 14.6793C128.093 14.6793 127.127 15.9984 126.839 17.675H133.247ZM138.115 21.9898C137.291 25.5913 134.463 27.6253 130.312 27.6253C125.265 27.6253 121.686 24.5577 121.686 19.5287C121.686 14.5361 125.337 10.9346 130.204 10.9346C135.467 10.9346 138.222 14.5361 138.222 18.8517V20.4208H126.768C126.912 22.5244 128.487 23.7376 130.491 23.7376C132.28 23.7376 133.39 23.0591 133.963 21.5975L138.115 21.9898Z" fill="#003C6E"/>
<path fill-rule="evenodd" clip-rule="evenodd" d="M111.012 14.9649H108.793V11.8261L109.938 11.6481C111.513 11.3634 111.979 10.5425 112.372 9.08023L112.909 6.97656H116.094V11.3634H120.318V14.9649H116.094V21.5621C116.094 22.9176 116.739 23.4879 117.956 23.4879C118.744 23.4879 119.567 23.2743 120.533 22.8465V26.2344C119.352 27.1265 117.992 27.6255 115.916 27.6255C113.339 27.6255 111.012 26.5199 111.012 22.9532V14.9649Z" fill="#003C6E"/>
<path fill-rule="evenodd" clip-rule="evenodd" d="M97.5196 21.9186C97.7347 23.4521 98.9514 24.3085 100.884 24.3085C102.28 24.3085 103.21 23.8095 103.21 22.953C103.21 22.1685 102.71 21.7407 101.421 21.5264L98.9879 21.1341C95.3361 20.5639 93.3677 19.3152 93.3677 16.1763C93.3677 13.1102 96.052 10.9346 100.312 10.9346C104.822 10.9346 107.506 12.9322 107.828 16.3194L103.569 16.4618C103.318 15.0715 102.208 14.287 100.24 14.287C98.9514 14.287 98.1641 14.8216 98.1641 15.6773C98.1641 16.3194 98.6649 16.7117 99.4523 16.8192L102.531 17.3539C106.003 17.8892 108.007 19.4227 108.007 22.454C108.007 25.7708 105.179 27.6253 100.848 27.6253C96.5529 27.6253 93.2963 25.8776 93.0098 22.0262L97.5196 21.9186Z" fill="#003C6E"/>
<path fill-rule="evenodd" clip-rule="evenodd" d="M79.7693 19.4584C79.7693 22.0263 81.2361 23.6309 83.3839 23.6309C85.8182 23.6309 86.9992 21.8832 86.9992 19.2797C86.9992 16.7118 85.8182 14.9648 83.3839 14.9648C81.2361 14.9648 79.7693 16.5695 79.7693 19.101V19.4584ZM78.5885 27.1972H74.6152V4.72852H79.7696V14.2155C80.5569 12.3253 82.3824 10.9343 85.1382 10.9343C89.7917 10.9343 92.2252 14.6433 92.2252 19.2793C92.2252 23.9516 89.7917 27.625 85.031 27.625C82.3824 27.625 80.3776 26.2695 79.5188 24.3438L78.5885 27.1972Z" fill="#003C6E"/>
<path fill-rule="evenodd" clip-rule="evenodd" d="M65.9194 20.1711L63.3065 20.7065C61.6953 21.0268 60.6936 21.4191 60.6936 22.6678C60.6936 23.5947 61.4095 24.1649 62.5191 24.1649C64.4153 24.1649 65.9194 22.7398 65.9194 20.493V20.1711ZM71.0017 22.8819C71.0017 23.702 71.3597 24.0586 72.0034 24.0586C72.4685 24.0586 72.863 23.9875 73.3281 23.7732V26.5197C72.54 27.0899 71.5383 27.5534 69.9628 27.5534C68.0666 27.5534 66.6705 26.5553 66.2054 24.772C65.3101 26.5909 63.3417 27.5534 60.8724 27.5534C57.6865 27.5534 55.6816 25.9488 55.6816 23.2385C55.6816 20.2065 57.9723 18.9229 61.4804 18.2452L65.9188 17.4606V17.1751C65.9188 15.6773 65.1672 14.786 63.5925 14.786C62.0884 14.786 61.3368 15.7129 61.0503 17.032L56.2547 16.6761C56.7912 13.2881 59.3327 10.9346 63.8782 10.9346C68.0301 10.9346 71.0017 12.7883 71.0017 17.104V22.8819Z" fill="#003C6E"/>
<path fill-rule="evenodd" clip-rule="evenodd" d="M42.5492 4.72827V22.7389H54.0024V27.1962H37.1084V4.72827H42.5492Z" fill="#003C6E"/>
</svg>
